<svg width="185" height="60" viewBox="0 0 185 60" fill="none" xmlns="http://www.w3.org/2000/svg">
<g filter="url(#filter0_d_125_175)">
<path d="M20.232 44.32L16.992 39.964C16.032 40.156 15.096 40.252 14.184 40.252C11.808 40.252 9.624 39.7 7.632 38.596C5.664 37.492 4.092 35.956 2.916 33.988C1.764 31.996 1.188 29.764 1.188 27.292C1.188 24.82 1.764 22.6 2.916 20.632C4.092 18.664 5.664 17.128 7.632 16.024C9.624 14.92 11.808 14.368 14.184 14.368C16.56 14.368 18.732 14.92 20.7 16.024C22.692 17.128 24.252 18.664 25.38 20.632C26.532 22.6 27.108 24.82 27.108 27.292C27.108 29.452 26.664 31.432 25.776 33.232C24.912 35.008 23.7 36.484 22.14 37.66L27.684 44.32H20.232ZM7.488 27.292C7.488 29.524 8.088 31.312 9.288 32.656C10.512 33.976 12.144 34.636 14.184 34.636C16.2 34.636 17.808 33.964 19.008 32.62C20.232 31.276 20.844 29.5 20.844 27.292C20.844 25.06 20.232 23.284 19.008 21.964C17.808 20.62 16.2 19.948 14.184 19.948C12.144 19.948 10.512 20.608 9.288 21.928C8.088 23.248 7.488 25.036 7.488 27.292ZM50.4391 19.912V40H44.2831V37.264C43.6591 38.152 42.8071 38.872 41.7271 39.424C40.6711 39.952 39.4951 40.216 38.1991 40.216C36.6631 40.216 35.3071 39.88 34.1311 39.208C32.9551 38.512 32.0431 37.516 31.3951 36.22C30.7471 34.924 30.4231 33.4 30.4231 31.648V19.912H36.5431V30.82C36.5431 32.164 36.8911 33.208 37.5871 33.952C38.2831 34.696 39.2191 35.068 40.3951 35.068C41.5951 35.068 42.5431 34.696 43.2391 33.952C43.9351 33.208 44.2831 32.164 44.2831 30.82V19.912H50.4391ZM53.6369 29.92C53.6369 27.856 54.0209 26.044 54.7889 24.484C55.5809 22.924 56.6489 21.724 57.9929 20.884C59.3369 20.044 60.8369 19.624 62.4929 19.624C63.9089 19.624 65.1449 19.912 66.2009 20.488C67.2809 21.064 68.1089 21.82 68.6849 22.756V19.912H74.8409V40H68.6849V37.156C68.0849 38.092 67.2449 38.848 66.1649 39.424C65.1089 40 63.8729 40.288 62.4569 40.288C60.8249 40.288 59.3369 39.868 57.9929 39.028C56.6489 38.164 55.5809 36.952 54.7889 35.392C54.0209 33.808 53.6369 31.984 53.6369 29.92ZM68.6849 29.956C68.6849 28.42 68.2529 27.208 67.3889 26.32C66.5489 25.432 65.5169 24.988 64.2929 24.988C63.0689 24.988 62.0249 25.432 61.1609 26.32C60.3209 27.184 59.9009 28.384 59.9009 29.92C59.9009 31.456 60.3209 32.68 61.1609 33.592C62.0249 34.48 63.0689 34.924 64.2929 34.924C65.5169 34.924 66.5489 34.48 67.3889 33.592C68.2529 32.704 68.6849 31.492 68.6849 29.956ZM91.5345 19.696C93.8865 19.696 95.7585 20.464 97.1505 22C98.5665 23.512 99.2745 25.6 99.2745 28.264V40H93.1545V29.092C93.1545 27.748 92.8065 26.704 92.1105 25.96C91.4145 25.216 90.4785 24.844 89.3025 24.844C88.1265 24.844 87.1905 25.216 86.4945 25.96C85.7985 26.704 85.4505 27.748 85.4505 29.092V40H79.2945V19.912H85.4505V22.576C86.0745 21.688 86.9145 20.992 87.9705 20.488C89.0265 19.96 90.2145 19.696 91.5345 19.696ZM114.748 34.78V40H111.616C109.384 40 107.644 39.46 106.396 38.38C105.148 37.276 104.524 35.488 104.524 33.016V25.024H102.076V19.912H104.524V15.016H110.68V19.912H114.712V25.024H110.68V33.088C110.68 33.688 110.824 34.12 111.112 34.384C111.4 34.648 111.88 34.78 112.552 34.78H114.748ZM138.013 19.912V40H131.857V37.264C131.233 38.152 130.381 38.872 129.301 39.424C128.245 39.952 127.069 40.216 125.773 40.216C124.237 40.216 122.881 39.88 121.705 39.208C120.529 38.512 119.617 37.516 118.969 36.22C118.321 34.924 117.997 33.4 117.997 31.648V19.912H124.117V30.82C124.117 32.164 124.465 33.208 125.161 33.952C125.857 34.696 126.793 35.068 127.969 35.068C129.169 35.068 130.117 34.696 130.813 33.952C131.509 33.208 131.857 32.164 131.857 30.82V19.912H138.013ZM168.067 19.696C170.563 19.696 172.543 20.452 174.007 21.964C175.495 23.476 176.239 25.576 176.239 28.264V40H170.119V29.092C170.119 27.796 169.771 26.8 169.075 26.104C168.403 25.384 167.467 25.024 166.267 25.024C165.067 25.024 164.119 25.384 163.423 26.104C162.751 26.8 162.415 27.796 162.415 29.092V40H156.295V29.092C156.295 27.796 155.947 26.8 155.251 26.104C154.579 25.384 153.643 25.024 152.443 25.024C151.243 25.024 150.295 25.384 149.599 26.104C148.927 26.8 148.591 27.796 148.591 29.092V40H142.435V19.912H148.591V22.432C149.215 21.592 150.031 20.932 151.039 20.452C152.047 19.948 153.187 19.696 154.459 19.696C155.971 19.696 157.315 20.02 158.491 20.668C159.691 21.316 160.627 22.24 161.299 23.44C161.995 22.336 162.943 21.436 164.143 20.74C165.343 20.044 166.651 19.696 168.067 19.696Z" fill="#2463eb"/>
</g>
<path d="M38.8 44.612V53H37.96V44.612H38.8ZM53.9022 46.328C54.6702 46.328 55.2942 46.572 55.7742 47.06C56.2622 47.54 56.5062 48.24 56.5062 49.16V53H55.6782V49.256C55.6782 48.544 55.5062 48 55.1622 47.624C54.8182 47.248 54.3502 47.06 53.7582 47.06C53.1422 47.06 52.6502 47.264 52.2822 47.672C51.9142 48.08 51.7302 48.672 51.7302 49.448V53H50.9022V49.256C50.9022 48.544 50.7302 48 50.3862 47.624C50.0422 47.248 49.5702 47.06 48.9702 47.06C48.3542 47.06 47.8622 47.264 47.4942 47.672C47.1262 48.08 46.9422 48.672 46.9422 49.448V53H46.1022V46.448H46.9422V47.576C47.1502 47.168 47.4462 46.86 47.8302 46.652C48.2142 46.436 48.6422 46.328 49.1142 46.328C49.6822 46.328 50.1782 46.464 50.6022 46.736C51.0342 47.008 51.3462 47.408 51.5382 47.936C51.7142 47.416 52.0142 47.02 52.4382 46.748C52.8702 46.468 53.3582 46.328 53.9022 46.328ZM63.3877 49.712C63.3877 49.04 63.5197 48.452 63.7837 47.948C64.0557 47.436 64.4277 47.044 64.8997 46.772C65.3797 46.492 65.9197 46.352 66.5197 46.352C67.1437 46.352 67.6797 46.496 68.1277 46.784C68.5837 47.072 68.9117 47.44 69.1117 47.888V46.448H69.9517V53H69.1117V51.548C68.9037 51.996 68.5717 52.368 68.1157 52.664C67.6677 52.952 67.1317 53.096 66.5077 53.096C65.9157 53.096 65.3797 52.956 64.8997 52.676C64.4277 52.396 64.0557 52 63.7837 51.488C63.5197 50.976 63.3877 50.384 63.3877 49.712ZM69.1117 49.724C69.1117 49.196 69.0037 48.732 68.7877 48.332C68.5717 47.932 68.2757 47.624 67.8997 47.408C67.5317 47.192 67.1237 47.084 66.6757 47.084C66.2117 47.084 65.7957 47.188 65.4277 47.396C65.0597 47.604 64.7677 47.908 64.5517 48.308C64.3437 48.7 64.2397 49.168 64.2397 49.712C64.2397 50.248 64.3437 50.72 64.5517 51.128C64.7677 51.528 65.0597 51.836 65.4277 52.052C65.7957 52.26 66.2117 52.364 66.6757 52.364C67.1237 52.364 67.5317 52.256 67.8997 52.04C68.2757 51.824 68.5717 51.516 68.7877 51.116C69.0037 50.716 69.1117 50.252 69.1117 49.724ZM80.0174 46.352C80.6334 46.352 81.1694 46.496 81.6254 46.784C82.0814 47.072 82.4094 47.436 82.6094 47.876V46.448H83.4494V53.168C83.4494 53.768 83.3174 54.3 83.0534 54.764C82.7974 55.228 82.4374 55.584 81.9734 55.832C81.5094 56.088 80.9814 56.216 80.3894 56.216C79.5494 56.216 78.8494 56.016 78.2894 55.616C77.7374 55.216 77.3934 54.672 77.2574 53.984H78.0854C78.2294 54.44 78.5014 54.804 78.9014 55.076C79.3094 55.348 79.8054 55.484 80.3894 55.484C80.8134 55.484 81.1934 55.392 81.5294 55.208C81.8654 55.032 82.1294 54.768 82.3214 54.416C82.5134 54.064 82.6094 53.648 82.6094 53.168V51.548C82.4014 51.996 82.0694 52.368 81.6134 52.664C81.1654 52.952 80.6334 53.096 80.0174 53.096C79.4174 53.096 78.8774 52.956 78.3974 52.676C77.9254 52.396 77.5534 52 77.2814 51.488C77.0174 50.976 76.8854 50.384 76.8854 49.712C76.8854 49.04 77.0174 48.452 77.2814 47.948C77.5534 47.436 77.9254 47.044 78.3974 46.772C78.8774 46.492 79.4174 46.352 80.0174 46.352ZM82.6094 49.724C82.6094 49.196 82.5014 48.732 82.2854 48.332C82.0694 47.932 81.7734 47.624 81.3974 47.408C81.0294 47.192 80.6214 47.084 80.1734 47.084C79.7094 47.084 79.2934 47.188 78.9254 47.396C78.5574 47.604 78.2654 47.908 78.0494 48.308C77.8414 48.7 77.7374 49.168 77.7374 49.712C77.7374 50.248 77.8414 50.72 78.0494 51.128C78.2654 51.528 78.5574 51.836 78.9254 52.052C79.2934 52.26 79.7094 52.364 80.1734 52.364C80.6214 52.364 81.0294 52.256 81.3974 52.04C81.7734 51.824 82.0694 51.516 82.2854 51.116C82.5014 50.716 82.6094 50.252 82.6094 49.724ZM91.187 45.212C91.019 45.212 90.875 45.152 90.755 45.032C90.635 44.912 90.575 44.764 90.575 44.588C90.575 44.412 90.635 44.268 90.755 44.156C90.875 44.036 91.019 43.976 91.187 43.976C91.355 43.976 91.499 44.036 91.619 44.156C91.739 44.268 91.799 44.412 91.799 44.588C91.799 44.764 91.739 44.912 91.619 45.032C91.499 45.152 91.355 45.212 91.187 45.212ZM91.607 46.448V53H90.767V46.448H91.607ZM101.981 46.328C102.765 46.328 103.405 46.572 103.901 47.06C104.397 47.54 104.645 48.24 104.645 49.16V53H103.817V49.256C103.817 48.544 103.637 48 103.277 47.624C102.925 47.248 102.441 47.06 101.825 47.06C101.193 47.06 100.689 47.26 100.313 47.66C99.9372 48.06 99.7492 48.648 99.7492 49.424V53H98.9092V46.448H99.7492V47.564C99.9572 47.164 100.257 46.86 100.649 46.652C101.041 46.436 101.485 46.328 101.981 46.328ZM114.651 46.352C115.267 46.352 115.803 46.496 116.259 46.784C116.715 47.072 117.043 47.436 117.243 47.876V46.448H118.083V53.168C118.083 53.768 117.951 54.3 117.687 54.764C117.431 55.228 117.071 55.584 116.607 55.832C116.143 56.088 115.615 56.216 115.023 56.216C114.183 56.216 113.483 56.016 112.923 55.616C112.371 55.216 112.027 54.672 111.891 53.984H112.719C112.863 54.44 113.135 54.804 113.535 55.076C113.943 55.348 114.439 55.484 115.023 55.484C115.447 55.484 115.827 55.392 116.163 55.208C116.499 55.032 116.763 54.768 116.955 54.416C117.147 54.064 117.243 53.648 117.243 53.168V51.548C117.035 51.996 116.703 52.368 116.247 52.664C115.799 52.952 115.267 53.096 114.651 53.096C114.051 53.096 113.511 52.956 113.031 52.676C112.559 52.396 112.187 52 111.915 51.488C111.651 50.976 111.519 50.384 111.519 49.712C111.519 49.04 111.651 48.452 111.915 47.948C112.187 47.436 112.559 47.044 113.031 46.772C113.511 46.492 114.051 46.352 114.651 46.352ZM117.243 49.724C117.243 49.196 117.135 48.732 116.919 48.332C116.703 47.932 116.407 47.624 116.031 47.408C115.663 47.192 115.255 47.084 114.807 47.084C114.343 47.084 113.927 47.188 113.559 47.396C113.191 47.604 112.899 47.908 112.683 48.308C112.475 48.7 112.371 49.168 112.371 49.712C112.371 50.248 112.475 50.72 112.683 51.128C112.899 51.528 113.191 51.836 113.559 52.052C113.927 52.26 114.343 52.364 114.807 52.364C115.255 52.364 115.663 52.256 116.031 52.04C116.407 51.824 116.703 51.516 116.919 51.116C117.135 50.716 117.243 50.252 117.243 49.724ZM134.934 52.316H137.946V53H134.094V44.612H134.934V52.316ZM144.16 49.712C144.16 49.04 144.292 48.452 144.556 47.948C144.828 47.436 145.2 47.044 145.672 46.772C146.152 46.492 146.692 46.352 147.292 46.352C147.916 46.352 148.452 46.496 148.9 46.784C149.356 47.072 149.684 47.44 149.884 47.888V46.448H150.724V53H149.884V51.548C149.676 51.996 149.344 52.368 148.888 52.664C148.44 52.952 147.904 53.096 147.28 53.096C146.688 53.096 146.152 52.956 145.672 52.676C145.2 52.396 144.828 52 144.556 51.488C144.292 50.976 144.16 50.384 144.16 49.712ZM149.884 49.724C149.884 49.196 149.776 48.732 149.56 48.332C149.344 47.932 149.048 47.624 148.672 47.408C148.304 47.192 147.896 47.084 147.448 47.084C146.984 47.084 146.568 47.188 146.2 47.396C145.832 47.604 145.54 47.908 145.324 48.308C145.116 48.7 145.012 49.168 145.012 49.712C145.012 50.248 145.116 50.72 145.324 51.128C145.54 51.528 145.832 51.836 146.2 52.052C146.568 52.26 146.984 52.364 147.448 52.364C147.896 52.364 148.304 52.256 148.672 52.04C149.048 51.824 149.344 51.516 149.56 51.116C149.776 50.716 149.884 50.252 149.884 49.724ZM158.87 47.9C159.086 47.444 159.418 47.072 159.866 46.784C160.322 46.496 160.858 46.352 161.474 46.352C162.074 46.352 162.61 46.492 163.082 46.772C163.554 47.044 163.922 47.436 164.186 47.948C164.458 48.452 164.594 49.04 164.594 49.712C164.594 50.384 164.458 50.976 164.186 51.488C163.922 52 163.55 52.396 163.07 52.676C162.598 52.956 162.066 53.096 161.474 53.096C160.85 53.096 160.31 52.956 159.854 52.676C159.406 52.388 159.078 52.016 158.87 51.56V53H158.042V44.12H158.87V47.9ZM163.742 49.712C163.742 49.168 163.634 48.7 163.418 48.308C163.21 47.908 162.922 47.604 162.554 47.396C162.186 47.188 161.77 47.084 161.306 47.084C160.858 47.084 160.446 47.192 160.07 47.408C159.702 47.624 159.41 47.932 159.194 48.332C158.978 48.732 158.87 49.196 158.87 49.724C158.87 50.252 158.978 50.716 159.194 51.116C159.41 51.516 159.702 51.824 160.07 52.04C160.446 52.256 160.858 52.364 161.306 52.364C161.77 52.364 162.186 52.26 162.554 52.052C162.922 51.836 163.21 51.528 163.418 51.128C163.634 50.72 163.742 50.248 163.742 49.712ZM173.796 53.096C173.044 53.096 172.428 52.924 171.948 52.58C171.476 52.228 171.212 51.752 171.156 51.152H172.02C172.06 51.52 172.232 51.82 172.536 52.052C172.848 52.276 173.264 52.388 173.784 52.388C174.24 52.388 174.596 52.28 174.852 52.064C175.116 51.848 175.248 51.58 175.248 51.26C175.248 51.036 175.176 50.852 175.032 50.708C174.888 50.564 174.704 50.452 174.48 50.372C174.264 50.284 173.968 50.192 173.592 50.096C173.104 49.968 172.708 49.84 172.404 49.712C172.1 49.584 171.84 49.396 171.624 49.148C171.416 48.892 171.312 48.552 171.312 48.128C171.312 47.808 171.408 47.512 171.6 47.24C171.792 46.968 172.064 46.752 172.416 46.592C172.768 46.432 173.168 46.352 173.616 46.352C174.32 46.352 174.888 46.532 175.32 46.892C175.752 47.244 175.984 47.732 176.016 48.356H175.176C175.152 47.972 175 47.664 174.72 47.432C174.448 47.192 174.072 47.072 173.592 47.072C173.168 47.072 172.824 47.172 172.56 47.372C172.296 47.572 172.164 47.82 172.164 48.116C172.164 48.372 172.24 48.584 172.392 48.752C172.552 48.912 172.748 49.04 172.98 49.136C173.212 49.224 173.524 49.324 173.916 49.436C174.388 49.564 174.764 49.688 175.044 49.808C175.324 49.928 175.564 50.104 175.764 50.336C175.964 50.568 176.068 50.876 176.076 51.26C176.076 51.612 175.98 51.928 175.788 52.208C175.596 52.48 175.328 52.696 174.984 52.856C174.64 53.016 174.244 53.096 173.796 53.096Z" fill="currentColor"/>
<g filter="url(#filter1_d_125_175)">
<rect width="22.2527" height="7.61955" transform="matrix(0.62932 0.777146 -1 0.000174533 20.9753 36)" fill="#2463eb"/>
</g>
<defs>
<filter id="filter0_d_125_175" x="1.18799" y="12.3679" width="183.051" height="37.9521" filterUnits="userSpaceOnUse" color-interpolation-filters="sRGB">
<feFlood flood-opacity="0" result="BackgroundImageFix"/>
<feColorMatrix in="SourceAlpha" type="matrix" values="0 0 0 0 0 0 0 0 0 0 0 0 0 0 0 0 0 0 127 0" result="hardAlpha"/>
<feOffset dx="4" dy="2"/>
<feGaussianBlur stdDeviation="2"/>
<feComposite in2="hardAlpha" operator="out"/>
<feColorMatrix type="matrix" values="0 0 0 0 0.321569 0 0 0 0 0.443137 0 0 0 0 1 0 0 0 0.25 0"/>
<feBlend mode="normal" in2="BackgroundImageFix" result="effect1_dropShadow_125_175"/>
<feBlend mode="normal" in="SourceGraphic" in2="effect1_dropShadow_125_175" result="shape"/>
</filter>
<filter id="filter1_d_125_175" x="13.3557" y="34" width="29.6238" height="25.2949" filterUnits="userSpaceOnUse" color-interpolation-filters="sRGB">
<feFlood flood-opacity="0" result="BackgroundImageFix"/>
<feColorMatrix in="SourceAlpha" type="matrix" values="0 0 0 0 0 0 0 0 0 0 0 0 0 0 0 0 0 0 127 0" result="hardAlpha"/>
<feOffset dx="4" dy="2"/>
<feGaussianBlur stdDeviation="2"/>
<feComposite in2="hardAlpha" operator="out"/>
<feColorMatrix type="matrix" values="0 0 0 0 0.321569 0 0 0 0 0.443137 0 0 0 0 1 0 0 0 0.25 0"/>
<feBlend mode="normal" in2="BackgroundImageFix" result="effect1_dropShadow_125_175"/>
<feBlend mode="normal" in="SourceGraphic" in2="effect1_dropShadow_125_175" result="shape"/>
</filter>
</defs>
</svg>
